<svg width="40" height="45" viewBox="0 0 40 45" fill="none" xmlns="http://www.w3.org/2000/svg">
<path d="M11 6.42L20 11.62L29 6.42M11 37.58V27.2L2 22M38 22L29 27.2V37.58M2.54 11.92L20 22.02L37.46 11.92M20 42.16V22M38 30V14C37.9993 13.2985 37.8141 12.6096 37.4631 12.0023C37.112 11.395 36.6075 10.8907 36 10.54L22 2.54C21.3919 2.18893 20.7021 2.0041 20 2.0041C19.2979 2.0041 18.6081 2.18893 18 2.54L4 10.54C3.39253 10.8907 2.88796 11.395 2.53692 12.0023C2.18589 12.6096 2.00072 13.2985 2 14V30C2.00072 30.7015 2.18589 31.3904 2.53692 31.9977C2.88796 32.605 3.39253 33.1093 4 33.46L18 41.46C18.6081 41.8111 19.2979 41.9959 20 41.9959C20.7021 41.9959 21.3919 41.8111 22 41.46L36 33.46C36.6075 33.1093 37.112 32.605 37.4631 31.9977C37.8141 31.3904 37.9993 30.7015 38 30Z" stroke="#F5F5F5" stroke-width="4" stroke-linecap="round" stroke-linejoin="round"/>
</svg>
