<?xml version="1.0" encoding="UTF-8"?>
<svg version="1.1" xmlns="http://www.w3.org/2000/svg" width="512" height="512">
<path d="M0 0 C0.69767482 -0.00465992 1.39534963 -0.00931984 2.11416611 -0.01412097 C4.45773206 -0.0260951 6.80072083 -0.0166664 9.14429188 -0.00736332 C10.83932483 -0.01153527 12.53435499 -0.01701202 14.22937995 -0.02368313 C18.89223757 -0.03817643 23.55491901 -0.03388078 28.21778643 -0.02651632 C33.24537334 -0.02179611 38.27292151 -0.03428483 43.3004961 -0.04453373 C53.15517967 -0.061754 63.00979957 -0.06255446 72.86449429 -0.05732083 C80.87957879 -0.0532812 88.89464445 -0.05472025 96.90972805 -0.06006908 C98.05007778 -0.06081751 99.19042751 -0.06156593 100.36533329 -0.06233703 C102.68202347 -0.06386852 104.99871363 -0.06540687 107.3154038 -0.066952 C129.05896629 -0.08069058 150.80249284 -0.0752315 172.54605452 -0.06376678 C192.41494797 -0.05384955 212.28374809 -0.06674653 232.15262713 -0.09070098 C252.56316602 -0.11512238 272.9736615 -0.12469135 293.3842147 -0.11804825 C304.83911589 -0.11456065 316.29394545 -0.11675686 327.74883556 -0.13429928 C337.50850892 -0.14905996 347.26806032 -0.14960714 357.02773138 -0.13222837 C362.00210195 -0.12374468 366.97625503 -0.12150371 371.95061398 -0.13687992 C376.5164913 -0.15081767 381.08196668 -0.14584834 385.64782128 -0.12664068 C387.28795318 -0.12290775 388.92811799 -0.12572322 390.56822034 -0.13625234 C420.45371037 -0.31426057 445.86571864 11.06515717 467.54756641 31.56781673 C489.4703558 54.27216723 496.66150433 82.02751016 496.26241016 112.84125423 C496.04651566 121.53503602 494.79754256 129.17798692 491.98506641 137.38031673 C491.76544239 138.02452572 491.54581837 138.6687347 491.31953907 139.33246517 C486.73041157 152.48601533 479.98794666 163.76848801 470.98506641 174.38031673 C470.46686329 175.04418392 469.94866016 175.70805111 469.41475391 176.39203548 C453.57412479 196.0137193 429.11694371 204.54042755 405.98506641 212.06781673 C403.62740719 212.84915993 401.27040195 213.63247899 398.91402149 214.41767025 C395.33795259 215.60923582 391.76161863 216.79986731 388.18326283 217.98454952 C378.49120519 221.19488334 368.8467808 224.52892618 359.21724415 227.92148495 C340.64386693 234.46373121 322.00379624 240.80212825 303.34956837 247.10956478 C288.09622979 252.26867647 272.86554825 257.48361284 257.67256641 262.81781673 C240.01155715 269.01835565 222.2918848 275.04008528 204.55891514 281.0310545 C187.32861277 286.85262826 170.1242843 292.73871442 152.96465015 298.76554012 C138.06248881 303.99599554 123.11364924 309.08420438 108.15150928 314.14002132 C98.23307514 317.49202498 88.31914163 320.85733669 78.40468311 324.22107601 C75.13669397 325.32891541 71.86785413 326.43420963 68.59883595 327.53900814 C63.8671626 329.13957473 59.14025 330.75344732 54.41704273 332.37882137 C52.74042152 332.95354344 51.0622595 333.52379423 49.3824358 334.08908749 C37.16598448 338.20418331 24.97689749 342.60464754 18.76631641 354.76703548 C15.00616062 363.53625595 14.83291636 372.16010345 14.77974415 381.56976986 C14.76489475 383.21012203 14.76489475 383.21012203 14.74974537 384.88361263 C14.71831206 388.47624244 14.69344515 392.06888544 14.66866016 395.66156673 C14.64807493 398.1612039 14.62707806 400.6608377 14.60568714 403.1604681 C14.5562475 409.05339579 14.51094063 414.94634377 14.46766478 420.83931971 C14.41326397 428.21239546 14.35239491 435.58541551 14.29170704 442.95844173 C14.18432388 456.09902876 14.08265544 469.23965351 13.98506641 482.38031673 C56.26235958 482.27555252 98.53963699 482.16573965 140.81689942 482.04919979 C145.81338467 482.03543098 150.80987004 482.02170377 155.80635548 482.00800228 C156.80102384 482.00527398 157.79569221 482.00254567 158.82050204 481.99973469 C174.9048711 481.95571551 190.98924698 481.91506268 207.07362795 481.87566412 C223.58997686 481.83513214 240.10631317 481.79095889 256.62264347 481.74343818 C266.80585049 481.71425289 276.9890567 481.68787388 287.17228019 481.66513776 C294.1647825 481.6492529 301.15726945 481.62981632 308.14975464 481.60764832 C312.1779659 481.59498081 316.20616564 481.58382016 320.23439121 481.57689762 C323.93362794 481.5705056 327.63282452 481.55958155 331.33203888 481.54528343 C333.28066642 481.53886577 335.22930762 481.53709232 337.17794514 481.53557116 C355.22099093 481.48651146 355.22099093 481.48651146 372.98506641 478.69281673 C374.10050831 478.43117733 374.10050831 478.43117733 375.23848438 478.16425228 C393.32482148 473.72229701 409.94677175 465.71481837 423.98506641 453.38031673 C424.79073048 452.71773861 425.59639454 452.05516048 426.42647266 451.37250423 C443.76417003 436.66666391 454.27969713 416.80303831 460.98506641 395.38031673 C461.34729298 394.23047298 461.70951954 393.08062923 462.08272266 391.89594173 C469.72458153 361.61285449 462.61112813 329.5900896 447.09444141 303.17377377 C435.35376506 284.19335816 418.48548201 270.57332771 398.94600391 260.26703548 C394.83219642 257.64570432 392.52812576 255.00949479 390.98506641 250.38031673 C390.61680417 244.76431757 390.76950634 241.20365684 393.98506641 236.38031673 C397.85227341 232.23688067 400.88376406 230.48454819 406.59053516 230.20062923 C420.1783013 231.22026584 435.1210361 243.7731548 444.98506641 252.38031673 C446.43139454 253.6274847 446.43139454 253.6274847 447.90694141 254.89984798 C469.18645689 273.59663439 484.68758962 298.99396845 491.98506641 326.38031673 C492.17826466 327.0730267 492.3714629 327.76573666 492.57051563 328.47943783 C498.89714798 352.01451016 498.77424126 380.97642756 491.98506641 404.38031673 C491.74900684 405.20306087 491.51294727 406.02580502 491.26973438 406.8734808 C484.09616001 430.98890103 471.340996 451.38157494 453.98506641 469.38031673 C453.26963673 470.15891048 452.55420704 470.93750423 451.81709766 471.73969173 C429.79144347 495.04638773 395.00239086 510.92537427 362.98243868 512.65624607 C358.91263122 512.7648077 354.8533007 512.78622794 350.78262806 512.76799679 C349.22955305 512.77218301 347.67648111 512.77766749 346.1234147 512.7843166 C341.90915614 512.79861905 337.69509567 512.79457497 333.48082697 512.78714979 C328.91585142 512.78238282 324.35091659 512.79495822 319.78595448 512.8051672 C310.86739473 512.82228631 301.94890564 512.82321037 293.03033374 512.81795429 C285.78345319 512.81390194 278.53659342 512.81536873 271.28971386 512.82070255 C269.7387897 512.82182519 269.7387897 512.82182519 268.15653374 512.8229705 C266.05579621 512.82450204 263.95505867 512.82604039 261.85432114 512.82758547 C242.19842857 512.84128311 222.54257591 512.83588991 202.88668426 512.82440025 C184.90190235 512.81444933 166.91722304 512.82744546 148.93245695 512.85133445 C130.44713624 512.87570299 111.96186337 512.88534017 93.47652692 512.87868172 C83.10535834 512.87518726 72.73426887 512.87743771 62.36311245 512.89493275 C53.54431188 512.9096257 44.72564625 512.91032721 35.90684841 512.89286184 C31.40778537 512.88432948 26.90896373 512.88225716 22.40991306 512.89751339 C18.29292779 512.91130179 14.17639211 512.9066734 10.05943324 512.88727415 C8.5692671 512.88349612 7.07906542 512.88648779 5.58893076 512.8968858 C3.56491058 512.91000679 1.5407691 512.8961183 -0.48323631 512.88088799 C-1.60786598 512.88078065 -2.73249565 512.88067331 -3.89120501 512.88056272 C-8.70671097 512.10938895 -11.8947527 509.81734116 -14.86570358 506.00605583 C-16.21165769 502.9308452 -16.39482809 500.72150944 -16.40261364 497.36849117 C-16.41251827 496.16179775 -16.4224229 494.95510433 -16.43262768 493.71184444 C-16.42812603 492.39595837 -16.42362438 491.08007229 -16.41898632 489.72431087 C-16.4246919 488.31772984 -16.43165689 486.91115344 -16.43978405 485.50458431 C-16.45772336 481.68787961 -16.45654405 477.87140477 -16.45084167 474.05467057 C-16.44774671 470.85959046 -16.45384664 467.6645543 -16.45988041 464.46948045 C-16.47393052 456.92010933 -16.47236419 449.3708513 -16.46097851 441.82147884 C-16.44953463 434.06270154 -16.46350862 426.30427141 -16.49037498 418.54553992 C-16.51263224 411.86499619 -16.51914582 405.1845606 -16.51329857 398.50398248 C-16.50994703 394.52294392 -16.51222097 390.54212706 -16.5295496 386.56112003 C-16.54517406 382.80742711 -16.54089452 379.0542407 -16.52224445 375.30056667 C-16.51688005 373.28988479 -16.5309597 371.27917934 -16.54593945 369.2685461 C-16.40442712 351.5391459 -10.06294846 336.33517144 1.98506641 323.38031673 C12.51077898 313.25802869 26.02044588 308.02312874 39.65303516 303.47406673 C40.95044312 303.03282114 42.24753768 302.59065317 43.54434681 302.14765072 C46.30733628 301.20584124 49.07229528 300.27017436 51.83907032 299.33954525 C56.27657175 297.84687107 60.70923846 296.3401776 65.14131641 294.83148861 C70.56366767 292.98664034 75.98705297 291.14489786 81.41186428 289.3072958 C90.92956747 286.08289201 100.43862545 282.83391067 109.94209766 279.56781673 C110.62734138 279.33232616 111.31258511 279.09683559 112.01859379 278.85420895 C115.46494396 277.66968154 118.91113596 276.48469479 122.3572588 275.29950619 C128.58932117 273.15644657 134.82286742 271.0177095 141.05625248 268.87850094 C152.48554453 264.95596989 163.91400004 261.03100436 175.34219456 257.10527706 C181.15271609 255.10934473 186.96334797 253.11373371 192.77400684 251.11820126 C194.20443282 250.62694693 195.63485276 250.135675 197.06526661 249.64438534 C215.74575103 243.22841458 234.43419733 236.83665464 253.13481617 230.4795599 C266.90289789 225.79704283 280.63642519 221.02046635 294.36031055 216.21015072 C310.19999216 210.66194477 326.08655849 205.25734203 341.98506641 199.88031673 C358.49787923 194.2927528 375.00489647 188.69031187 391.47090626 182.96601009 C393.28264409 182.33633438 395.09480427 181.70787226 396.9074297 181.08075619 C421.88611096 172.43247246 443.68437875 163.29793489 456.73506641 138.69281673 C465.19307166 121.16116196 467.30333518 100.59590231 461.37178516 81.86469173 C453.25549626 61.47108693 439.94069922 46.56569132 419.95381641 37.22162533 C405.70391338 31.13219504 390.44770099 31.23160421 375.22963428 31.22209835 C373.66422662 31.2175231 372.09882016 31.2125217 370.53341508 31.20713478 C366.26213657 31.19365381 361.99086594 31.18616472 357.71957183 31.17970812 C353.10214337 31.17165964 348.48473109 31.15797737 343.86731434 31.14499569 C335.87736236 31.12329568 327.88740869 31.10512771 319.89744282 31.08939075 C308.34543682 31.06663289 296.79344879 31.03849843 285.24145809 31.00907148 C266.49698522 30.96146789 247.75250498 30.91818422 229.00801563 30.87763119 C210.80455929 30.83823938 192.60110947 30.79680438 174.39766407 30.75263119 C173.27471942 30.74990692 172.15177477 30.74718264 170.99480149 30.74437582 C165.36105416 30.73069573 159.72730693 30.71697558 154.09355974 30.70323551 C107.39074228 30.58938442 60.68791066 30.48255006 13.98506641 30.38031673 C13.98875359 31.67868025 13.99244076 32.97704376 13.99623966 34.31475163 C14.08286172 65.13182758 14.14882376 95.94887068 14.18932773 126.76603914 C14.19433059 130.55868918 14.19950787 134.35133896 14.20479298 138.14398861 C14.20584222 138.89904028 14.20689146 139.65409196 14.2079725 140.43202399 C14.2253801 152.65944532 14.25691972 164.88679146 14.2936776 177.11416818 C14.33107718 189.65959013 14.35330018 202.20497269 14.36142039 214.75044811 C14.36691023 222.49237954 14.38425234 230.23409845 14.41673228 237.97596447 C14.44036574 243.91136505 14.44288873 249.84665641 14.43749714 255.78210545 C14.43859929 258.21778517 14.44657842 260.6534728 14.46188831 263.08910465 C14.48174823 266.41101137 14.4770194 269.73200399 14.46608448 273.05393124 C14.47773585 274.02086411 14.48938721 274.98779698 14.50139165 275.98403084 C14.44978022 281.77264861 13.76716921 284.93320673 9.98506641 289.38031673 C5.95017877 292.92612709 2.41845232 293.68391852 -2.95633984 293.59516048 C-7.52469676 293.11838699 -10.31611085 291.15468788 -13.32743359 287.81781673 C-15.62365224 284.50105645 -16.14056246 282.85110285 -16.14915466 278.8718214 C-16.15361251 277.91708911 -16.15807035 276.96235682 -16.16266328 275.97869325 C-16.16247892 274.92249182 -16.16229456 273.86629038 -16.16210461 272.77808285 C-16.16578129 271.66171405 -16.16945798 270.54534524 -16.17324609 269.39514709 C-16.18431927 265.62880585 -16.1881329 261.86249216 -16.19193554 258.09613705 C-16.19819741 255.4061024 -16.20483084 252.71607074 -16.21184826 250.02603817 C-16.2316237 241.93482319 -16.24168039 233.84360693 -16.25057605 225.75237381 C-16.25495731 221.94368955 -16.26032455 218.13500667 -16.26556492 214.32632351 C-16.28257851 201.6680305 -16.29707308 189.00973836 -16.30431366 176.35143566 C-16.30622361 173.06548976 -16.30814393 169.77954386 -16.3100996 166.49359798 C-16.31082521 165.26851261 -16.31082521 165.26851261 -16.31156548 164.01867804 C-16.31986724 150.78583565 -16.34520601 137.55308362 -16.37768028 124.3202807 C-16.41073676 110.73969755 -16.42876115 97.15916035 -16.4319579 83.57853675 C-16.43412435 75.951384 -16.4428925 68.324363 -16.46841908 60.69724941 C-16.49010688 54.20204767 -16.49818605 47.70700966 -16.48845229 41.21177581 C-16.48390186 37.89753561 -16.48801031 34.58370458 -16.50521374 31.26949596 C-16.52282483 27.67620484 -16.51587869 24.0837759 -16.50268078 20.49048519 C-16.51365002 19.44320665 -16.52461927 18.3959281 -16.53592092 17.31691384 C-16.48443665 11.52605628 -16.09943095 7.84265195 -12.01493359 3.38031673 C-7.9540402 0.37351036 -5.00626473 0.00414509 0 0 Z " fill="#226EB3" transform="translate(16.014933586120605,-0.38031673431396484)"/>
<path d="M0 0 C11.98898298 10.26067739 20.2199498 24.89271886 21.84765625 40.6875 C23.13771899 57.51974713 19.22767619 73.69777561 8.09960938 86.71777344 C-2.29684192 98.2089696 -15.69688426 106.58945604 -31.35913086 108.04907227 C-49.98771446 108.94502477 -65.96905523 105.36459175 -80.23828125 92.640625 C-91.12000555 82.46463008 -98.52532139 68.32746344 -99.26171875 53.30859375 C-99.79652225 33.6568943 -95.59982169 18.71106429 -81.80078125 4.078125 C-58.89748999 -17.82529543 -25.13768778 -18.27000576 0 0 Z M-59.98828125 26.828125 C-66.84838723 35.47185854 -69.03962367 42.78902955 -67.98828125 53.828125 C-65.59173312 62.98195061 -61.13379151 68.5351088 -53.203125 73.53515625 C-46.15308596 77.65078751 -38.12499078 78.11048086 -30.234375 76.140625 C-22.05274677 73.14277649 -16.34139092 68.40576036 -11.98828125 60.828125 C-8.46396075 52.94408951 -8.17900225 45.16722272 -11.05078125 37.0390625 C-14.31230131 29.34731102 -20.12081115 24.01725902 -27.30078125 19.953125 C-39.4109121 16.25850881 -50.76922527 17.66841917 -59.98828125 26.828125 Z " fill="#226EB3" transform="translate(357.98828125,314.171875)"/>
<path d="M0 0 C10.21330218 8.5060039 17.86526389 19.96882429 21 33 C21.18046875 33.7115625 21.3609375 34.423125 21.546875 35.15625 C24.2109216 51.87543903 21.726988 68.91402983 12 83 C2.02899506 95.64692958 -10.84511576 105.09201753 -27 108 C-46.902859 109.78869084 -63.2796833 106.56687726 -78.9765625 93.52734375 C-91.0738572 82.21320725 -98.13999828 67.99075962 -99.16015625 51.39453125 C-99.64975569 35.28032359 -94.60215054 19.57576146 -84.3125 7.0625 C-61.86856503 -15.99996861 -25.77704355 -20.10136423 0 0 Z M-59.79296875 27.703125 C-65.95953572 34.46350953 -68.18739921 41.92987823 -68 51 C-66.47473689 61.04008144 -61.09558532 67.82870928 -53.125 73.7734375 C-46.19281087 77.77473784 -38.78656686 77.84804194 -31 77 C-27.32026303 75.77990227 -24.23347714 74.12061694 -21 72 C-20.0925 71.443125 -19.185 70.88625 -18.25 70.3125 C-11.02234429 62.88407608 -8.61184714 55.27622212 -8.72265625 45.16796875 C-9.41615328 37.24647452 -12.99561181 30.21889173 -19 25 C-32.71872762 15.42997851 -47.62409981 16.14402509 -59.79296875 27.703125 Z " fill="#226EB3" transform="translate(207,102)"/>
</svg>
