<?xml version="1.0" encoding="UTF-8"?>
<svg version="1.1" xmlns="http://www.w3.org/2000/svg" width="1024" height="578">
<path d="M0 0 C6.36462661 4.71173547 12.64618583 9.53532967 18.92578125 14.359375 C23.85770715 18.13973243 28.84434498 21.83874162 33.859375 25.5078125 C41.48710248 31.09398004 49.0158312 36.80058396 56.5234375 42.546875 C62.25840227 46.92845576 68.03697063 51.24324208 73.859375 55.5078125 C81.48677517 61.0944367 89.01582065 66.80057588 96.5234375 72.546875 C102.25840227 76.92845576 108.03697063 81.24324208 113.859375 85.5078125 C121.48677517 91.0944367 129.01582065 96.80057588 136.5234375 102.546875 C142.25840227 106.92845576 148.03697063 111.24324208 153.859375 115.5078125 C161.48677517 121.0944367 169.01582065 126.80057588 176.5234375 132.546875 C182.25840227 136.92845576 188.03697063 141.24324208 193.859375 145.5078125 C201.48677517 151.0944367 209.01582065 156.80057588 216.5234375 162.546875 C222.25840227 166.92845576 228.03697063 171.24324208 233.859375 175.5078125 C241.48677517 181.0944367 249.01582065 186.80057588 256.5234375 192.546875 C262.25840227 196.92845576 268.03697063 201.24324208 273.859375 205.5078125 C281.48677517 211.0944367 289.01582065 216.80057588 296.5234375 222.546875 C303.01405391 227.50578252 309.56678703 232.37198893 316.16235352 237.19018555 C320.50855508 240.37490614 324.80945265 243.60915161 329.07421875 246.90234375 C330.50507812 248.00545898 330.50507812 248.00545898 331.96484375 249.13085938 C333.81689785 250.56268879 335.66474666 251.99997856 337.5078125 253.44335938 C338.34441406 254.08982422 339.18101562 254.73628906 340.04296875 255.40234375 C340.78087646 255.97831299 341.51878418 256.55428223 342.27905273 257.14770508 C344.42428834 258.55025262 345.80448596 259.30562704 348.359375 259.5078125 C350.31480686 258.62040138 350.31480686 258.62040138 352.16796875 257.10546875 C352.90402344 256.55310547 353.64007812 256.00074219 354.3984375 255.43164062 C355.18992187 254.81740234 355.98140625 254.20316406 356.796875 253.5703125 C357.63089844 252.93931641 358.46492187 252.30832031 359.32421875 251.65820312 C362.01213794 249.62026439 364.68608575 247.56489245 367.359375 245.5078125 C369.1098961 244.17215291 370.86119197 242.83750808 372.61328125 241.50390625 C375.25046776 239.49596734 377.88671979 237.48689292 380.51928711 235.47290039 C387.02187321 230.50244687 393.59253029 225.63302652 400.1953125 220.796875 C406.13608933 216.43504218 412.0069076 211.98726702 417.859375 207.5078125 C425.24579292 201.85427855 432.69131966 196.29311056 440.1953125 190.796875 C446.13608933 186.43504218 452.0069076 181.98726702 457.859375 177.5078125 C465.24579292 171.85427855 472.69131966 166.29311056 480.1953125 160.796875 C486.13608933 156.43504218 492.0069076 151.98726702 497.859375 147.5078125 C505.24579292 141.85427855 512.69131966 136.29311056 520.1953125 130.796875 C526.13608933 126.43504218 532.0069076 121.98726702 537.859375 117.5078125 C545.24579292 111.85427855 552.69131966 106.29311056 560.1953125 100.796875 C566.13608933 96.43504218 572.0069076 91.98726702 577.859375 87.5078125 C585.24579292 81.85427855 592.69131966 76.29311056 600.1953125 70.796875 C606.13608933 66.43504218 612.0069076 61.98726702 617.859375 57.5078125 C625.24579292 51.85427855 632.69131966 46.29311056 640.1953125 40.796875 C646.13609603 36.43503726 652.00667672 31.9869731 657.859375 27.5078125 C666.92740391 20.5737819 676.0521859 13.72497094 685.28759766 7.01513672 C686.58975327 6.06775176 687.88931041 5.11677431 689.18505859 4.16064453 C714.74441237 -14.67762809 744.20689701 -21.57317916 775.68359375 -16.84375 C801.29853432 -11.8159293 825.84936235 4.64075728 840.984375 25.6328125 C852.67067035 43.2139648 859.70763733 62.21815455 859.61664391 83.50220871 C859.62014998 84.55719873 859.62365605 85.61218876 859.62726837 86.69914818 C859.6365463 90.22190974 859.63166833 93.74450467 859.62680054 97.26727295 C859.6305386 99.82345376 859.63514074 102.37963342 859.64053118 104.93581128 C859.6508093 110.48720107 859.65367879 116.03855601 859.65161896 121.58995438 C859.6485633 129.84540349 859.65690539 138.10081416 859.66736821 146.3562558 C859.68669205 161.95991222 859.69233581 177.56355549 859.69348232 193.16722247 C859.69440201 205.21822678 859.69852179 217.26922594 859.70488358 229.32022858 C859.7066787 232.79120675 859.70845833 236.26218493 859.71023333 239.73316312 C859.71067543 240.59609724 859.71111752 241.45903137 859.71157302 242.34811501 C859.72387822 266.61472974 859.73177446 290.88134268 859.73088646 315.14796066 C859.7308553 316.06252957 859.73082414 316.97709848 859.73079204 317.9193816 C859.73062583 322.55462362 859.73042775 327.18986564 859.73022263 331.82510766 C859.73016279 333.20593101 859.73016279 333.20593101 859.73010175 334.61464977 C859.73002087 336.47622291 859.72993728 338.33779605 859.72985096 340.1993692 C859.72862546 369.16222975 859.74363979 398.12504347 859.77099609 427.08789062 C859.80172977 459.63974105 859.81892784 492.19156071 859.81706965 524.74342656 C859.81692039 528.21566216 859.81682298 531.68789776 859.81676102 535.16013336 C859.81672605 536.44252904 859.81672605 536.44252904 859.81669038 537.75083169 C859.81662889 551.49672485 859.82938943 565.24257728 859.84662555 578.98845834 C859.8635947 592.80739301 859.8655458 606.62626823 859.8524069 620.44520757 C859.84502655 628.64945022 859.84864828 636.853512 859.86829158 645.05773542 C859.88173325 651.19120828 859.87415609 657.32448919 859.85854514 663.45795313 C859.85547294 665.93364989 859.85911581 668.40936633 859.87026529 670.8850399 C859.97032093 694.68357213 856.40844451 713.49902716 839.359375 731.5078125 C834.0184992 736.71796756 828.07552021 740.42254856 821.484375 743.8203125 C820.54936157 744.30890747 820.54936157 744.30890747 819.59545898 744.80737305 C761.72883259 773.16179875 690.79942394 750.5078125 626.359375 750.5078125 C626.029375 620.8178125 625.699375 491.1278125 625.359375 357.5078125 C610.52974976 368.40771189 610.52974976 368.40771189 595.859375 379.5078125 C588.47440704 385.16321547 581.02739245 390.7225422 573.5234375 396.21875 C567.58266067 400.58058282 561.7118424 405.02835798 555.859375 409.5078125 C548.47295708 415.16134645 541.02743034 420.72251444 533.5234375 426.21875 C527.58266067 430.58058282 521.7118424 435.02835798 515.859375 439.5078125 C508.47295708 445.16134645 501.02743034 450.72251444 493.5234375 456.21875 C487.58266067 460.58058282 481.7118424 465.02835798 475.859375 469.5078125 C468.47295708 475.16134645 461.02743034 480.72251444 453.5234375 486.21875 C447.58266067 490.58058282 441.7118424 495.02835798 435.859375 499.5078125 C428.47295708 505.16134645 421.02743034 510.72251444 413.5234375 516.21875 C406.68413423 521.24029825 399.94147829 526.38317937 393.20410156 531.5402832 C386.61797391 536.57240125 379.97314178 541.51756008 373.27294922 546.39672852 C369.30903167 549.29285792 365.40617473 552.24037977 361.5703125 555.3046875 C360.79913086 555.91546143 360.02794922 556.52623535 359.23339844 557.15551758 C357.77062244 558.31960907 356.31749972 559.49597109 354.87597656 560.6862793 C354.22338867 561.20359619 353.57080078 561.72091309 352.8984375 562.25390625 C352.05079834 562.94504517 352.05079834 562.94504517 351.18603516 563.65014648 C348.55981255 564.88322855 347.08086253 564.38219874 344.359375 563.5078125 C342.44091797 562.33129883 342.44091797 562.33129883 340.6015625 560.83984375 C339.90361572 560.28361328 339.20566895 559.72738281 338.48657227 559.15429688 C337.74334717 558.54908203 337.00012207 557.94386719 336.234375 557.3203125 C334.61754624 556.03306743 332.99900246 554.74797405 331.37890625 553.46484375 C330.13294678 552.47605225 330.13294678 552.47605225 328.86181641 551.46728516 C324.94218708 548.39811979 320.93874956 545.44793457 316.921875 542.5078125 C316.13393555 541.92990967 315.34599609 541.35200684 314.53417969 540.7565918 C312.14386345 539.00523484 309.75174349 537.25636467 307.359375 535.5078125 C296.55497819 527.60062133 285.82808891 519.6066907 275.19580078 511.46923828 C269.46077384 507.08736055 263.68196359 502.77251785 257.859375 498.5078125 C250.23197483 492.9211883 242.70292935 487.21504912 235.1953125 481.46875 C229.46034773 477.08716924 223.68177937 472.77238292 217.859375 468.5078125 C210.23197483 462.9211883 202.70292935 457.21504912 195.1953125 451.46875 C189.46034773 447.08716924 183.68177937 442.77238292 177.859375 438.5078125 C170.23197483 432.9211883 162.70292935 427.21504912 155.1953125 421.46875 C149.46034773 417.08716924 143.68177937 412.77238292 137.859375 408.5078125 C131.13440042 403.58216222 124.47898507 398.57415018 117.859375 393.5078125 C108.11262924 386.05147147 98.25570126 378.76511842 88.359375 371.5078125 C82.089375 366.8878125 75.819375 362.2678125 69.359375 357.5078125 C69.029375 487.1978125 68.699375 616.8878125 68.359375 750.5078125 C-124.51479719 750.5078125 -124.51479719 750.5078125 -145.640625 730.5078125 C-150.85078006 725.1669367 -154.55536106 719.22395771 -157.953125 712.6328125 C-158.44171997 711.69779907 -158.44171997 711.69779907 -158.94018555 710.74389648 C-163.51092412 701.41578579 -165.09340413 691.70215609 -165.02094173 681.3987484 C-165.02560165 680.34350332 -165.03026157 679.28825824 -165.0350627 678.20103604 C-165.04696425 674.68332339 -165.03763572 671.16600044 -165.02830505 667.64828491 C-165.03248009 665.09337811 -165.03795853 662.53847316 -165.04462487 659.98357165 C-165.05696312 654.43796921 -165.05821654 648.89245142 -165.05207443 643.3468399 C-165.04296495 635.09986378 -165.05103026 626.85296561 -165.06236567 618.60599545 C-165.08201657 603.87321853 -165.0843829 589.14047683 -165.07917047 574.40768993 C-165.07461 561.51090008 -165.07521656 548.61412415 -165.08101082 535.71733475 C-165.08176769 533.98612154 -165.08252367 532.25490833 -165.08327876 530.52369512 C-165.08442399 527.91475375 -165.08557387 525.30581238 -165.08673801 522.69687102 C-165.09744105 498.44490277 -165.10217042 474.19293914 -165.09426785 449.94096947 C-165.09397067 449.02704223 -165.0936735 448.11311499 -165.09336732 447.17149299 C-165.09091849 439.75021436 -165.08830685 432.32893579 -165.08568319 424.90765722 C-165.07558461 395.97145646 -165.08392957 367.03531376 -165.10717773 338.09912109 C-165.13326989 305.57067056 -165.14609278 273.04225497 -165.13898998 240.51379359 C-165.13827395 237.04292401 -165.13759956 233.57205443 -165.13694954 230.10118484 C-165.13677973 229.24660317 -165.13660992 228.39202149 -165.13643497 227.51154339 C-165.13413511 214.62956318 -165.14209414 201.74761547 -165.15524101 188.86564255 C-165.17017409 174.20753861 -165.17096643 159.54951071 -165.1531701 144.89140837 C-165.14362959 136.6966821 -165.1449957 128.5021333 -165.16240479 120.307419 C-165.17417969 114.17573508 -165.16486347 108.04424835 -165.14758242 101.91258128 C-165.14382564 99.44157359 -165.14673494 96.97054428 -165.15719407 94.49955587 C-165.27646381 64.1502736 -158.39195471 36.60329319 -136.609375 14.44140625 C-135.62199161 13.46132036 -134.63252015 12.48333202 -133.640625 11.5078125 C-132.8053125 10.67378906 -131.97 9.83976562 -131.109375 8.98046875 C-117.1110161 -4.31342728 -99.27858533 -12.31548796 -80.640625 -16.4921875 C-79.89087402 -16.6672583 -79.14112305 -16.8423291 -78.36865234 -17.02270508 C-51.25480191 -21.68888857 -22.47387855 -15.83104704 0 0 Z " fill="#EA4234" transform="translate(164.640625,17.4921875)"/>
<path d="M0 0 C1.41472919 0.9324949 2.8280194 1.86717309 4.24072266 2.80273438 C5.42149887 3.58312073 5.42149887 3.58312073 6.62612915 4.37927246 C10.34358753 6.91731583 13.85100822 9.70272404 17.375 12.5 C23.61102729 17.4009923 29.90990029 22.19375935 36.3125 26.875 C43.10162903 31.84053902 49.82147972 36.88665246 56.5 42 C63.11938274 47.0666281 69.77503207 52.07435459 76.5 57 C84.12740017 62.5866242 91.65644565 68.29276338 99.1640625 74.0390625 C104.89902727 78.42064326 110.67759563 82.73542958 116.5 87 C124.12740017 92.5866242 131.65644565 98.29276338 139.1640625 104.0390625 C144.89902727 108.42064326 150.67759563 112.73542958 156.5 117 C164.12740017 122.5866242 171.65644565 128.29276338 179.1640625 134.0390625 C185.65669684 138.99951174 192.21441124 143.86300889 198.80737305 148.68896484 C205.93606268 153.92060564 212.96483882 159.27966305 219.97265625 164.671875 C220.8028125 165.30867187 221.63296875 165.94546875 222.48828125 166.6015625 C223.21571533 167.16182129 223.94314941 167.72208008 224.69262695 168.29931641 C227.05394808 170.12024981 227.05394808 170.12024981 230.09806788 171.68900084 C233 174 233 174 233.74519098 177.03595757 C233.7417735 178.83811026 233.7417735 178.83811026 233.73828697 180.67667007 C233.74867157 181.68648711 233.74867157 181.68648711 233.75926596 182.71670449 C233.77521031 184.98359354 233.74818981 187.24794999 233.7215271 189.51470947 C233.72414252 191.15158874 233.72939409 192.78846557 233.7370621 194.42532897 C233.75051044 198.93163493 233.72643575 203.43708905 233.69639373 207.94328642 C233.67053608 212.79943067 233.67924741 217.65552504 233.68380737 222.51171875 C233.68695687 230.92809729 233.66809678 239.34419722 233.63438034 247.76050568 C233.58566361 259.92909729 233.56999633 272.09755389 233.56245239 284.26623246 C233.54931344 304.00796837 233.50936433 323.74955572 233.45263672 343.49121094 C233.39758118 362.67089086 233.35510151 381.85053047 233.32958984 401.03027344 C233.3280135 402.21207279 233.32643716 403.39387215 233.32481305 404.6114836 C233.31698295 410.54009303 233.30940068 416.46870274 233.30194163 422.39731264 C233.23971894 471.59831112 233.13402044 520.79914832 233 570 C210.44193523 570.09365802 187.88390276 570.1640841 165.32568264 570.20724869 C154.85027483 570.22782813 144.3749882 570.25585996 133.8996582 570.30175781 C124.76380279 570.34176748 115.62803518 570.36746633 106.49209458 570.37635398 C101.65969817 570.3815449 96.82755286 570.39364804 91.99523735 570.42292023 C87.43568845 570.45031319 82.87649121 570.45839737 78.31686783 570.45243073 C76.6541521 570.45352039 74.99142314 570.46133083 73.32877922 570.4768219 C52.26196539 570.66327697 34.64111447 564.80757545 19 550 C13.78984494 544.6591242 10.08526394 538.71614521 6.6875 532.125 C6.19890503 531.18998657 6.19890503 531.18998657 5.70043945 530.23608398 C-0.49748045 517.58716917 -0.4239692 504.87068602 -0.36076355 491.1194458 C-0.36207305 488.99719017 -0.36470214 486.87493502 -0.36853105 484.75268245 C-0.37521944 478.94212622 -0.36326593 473.13173679 -0.34819686 467.3212018 C-0.33521704 461.04732565 -0.33962734 454.77345856 -0.34190369 448.49957275 C-0.34347519 437.63666514 -0.3341839 426.77381952 -0.31719017 415.91092682 C-0.29941939 404.52204379 -0.28788836 393.13318237 -0.28463173 381.74428558 C-0.28442551 381.03530091 -0.28421929 380.32631623 -0.28400682 379.59584717 C-0.28299178 375.9950517 -0.28208764 372.39425621 -0.2812262 368.7934607 C-0.27493039 343.31053464 -0.2547335 317.82763676 -0.22631836 292.34472656 C-0.19875093 267.593426 -0.17750702 242.84213316 -0.16479492 218.09082031 C-0.16440034 217.327442 -0.16400576 216.56406369 -0.16359923 215.7775527 C-0.15964356 208.11116743 -0.15581613 200.4447821 -0.15208265 192.77839673 C-0.14447467 177.16205818 -0.13601092 161.54572014 -0.12702942 145.92938232 C-0.12661755 145.21141948 -0.12620568 144.49345663 -0.12578133 143.75373733 C-0.09819444 95.83581291 -0.05059808 47.91790506 0 0 Z " fill="#4284F3" transform="translate(0,198)"/>
<path d="M0 0 C0.06849785 48.60077153 0.13217714 97.2015465 0.16937256 145.80235291 C0.16992479 146.52206767 0.17047702 147.24178244 0.17104598 147.98330674 C0.1830186 163.62598471 0.19409919 179.2686632 0.20426132 194.91134245 C0.20925051 202.58290354 0.21443675 210.2544645 0.21972656 217.92602539 C0.2202496 218.68942346 0.22077263 219.45282154 0.22131152 220.23935288 C0.23834609 244.96745222 0.26838324 269.69551492 0.30518888 294.42359207 C0.34295383 319.84244513 0.36754979 345.26127791 0.37565996 370.68015855 C0.37681252 374.2733237 0.37811506 377.86648879 0.37950897 381.45965385 C0.37991351 382.52039641 0.37991351 382.52039641 0.38032622 383.6025681 C0.38504656 394.96963468 0.4035811 406.33663846 0.42732814 417.70367946 C0.45092607 429.14127659 0.4595367 440.57878731 0.45400551 452.01641244 C0.45144531 458.20958279 0.45535114 464.40256933 0.4768219 470.59570694 C0.4963561 476.27183633 0.49722531 481.94765914 0.48359558 487.62380295 C0.48191223 489.6711688 0.48692779 491.71855416 0.49953273 493.7658819 C0.62903726 516.10970539 -4.12458526 534.23093609 -20 551 C-25.3408758 556.21015506 -31.28385479 559.91473606 -37.875 563.3125 C-38.81001343 563.80109497 -38.81001343 563.80109497 -39.76391602 564.29956055 C-51.25866879 569.93194546 -62.89222865 570.42755776 -75.42675781 570.34057617 C-77.15264369 570.33972829 -78.87853064 570.34020817 -80.60441589 570.34190369 C-85.2544801 570.34275879 -89.90430863 570.32521216 -94.55431843 570.30418181 C-99.42696731 570.2853336 -104.29962254 570.28365819 -109.17230225 570.28010559 C-118.38364739 570.27080893 -127.59488477 570.24622758 -136.80618262 570.21605712 C-147.29959549 570.18243875 -157.7930137 570.16600846 -168.28646708 570.15097082 C-189.85770469 570.11967575 -211.42884553 570.06696186 -233 570 C-233.43507207 519.79068656 -233.76977487 469.58156388 -233.97024126 419.37073558 C-233.99400414 413.44035058 -234.01859631 407.5099693 -234.04370117 401.57958984 C-234.04868507 400.39897874 -234.05366897 399.21836764 -234.05880389 398.00198044 C-234.14143661 378.8958083 -234.2912175 359.79072448 -234.46590313 340.68519758 C-234.64370538 321.07496271 -234.74914189 301.465297 -234.7876814 281.85428917 C-234.81372856 269.75653035 -234.89592202 257.66184754 -235.05041287 245.56503595 C-235.15100266 237.26494451 -235.18116957 228.9664384 -235.15652617 220.66578196 C-235.14437549 215.87825995 -235.16271654 211.09610222 -235.26490402 206.30953979 C-235.87866912 176.10135383 -235.87866912 176.10135383 -228.82836342 168.71261978 C-224.92851629 165.48512894 -220.81434885 163.13836745 -216.21422923 161.0550139 C-213.17345666 159.60617686 -210.81732994 157.75730031 -208.21875 155.625 C-207.43048828 155.02042969 -206.64222656 154.41585937 -205.83007812 153.79296875 C-204.67668945 152.90544922 -204.67668945 152.90544922 -203.5 152 C-196.11503204 146.34459703 -188.66801745 140.7852703 -181.1640625 135.2890625 C-175.22328567 130.92722968 -169.3524674 126.47945452 -163.5 122 C-156.11358208 116.34646605 -148.66805534 110.78529806 -141.1640625 105.2890625 C-135.22328567 100.92722968 -129.3524674 96.47945452 -123.5 92 C-116.11358208 86.34646605 -108.66805534 80.78529806 -101.1640625 75.2890625 C-95.22328567 70.92722968 -89.3524674 66.47945452 -83.5 62 C-76.11358208 56.34646605 -68.66805534 50.78529806 -61.1640625 45.2890625 C-54.32771275 40.26968278 -47.58781756 35.1292168 -40.85351562 29.97412109 C-34.17294396 24.86959979 -27.42466895 19.86450612 -20.64111328 14.89794922 C-14.77350915 10.59453898 -9.0014574 6.18250189 -3.2734375 1.6953125 C-1 0 -1 0 0 0 Z " fill="#34A852" transform="translate(1024,198)"/>
<path d="M0 0 C22.57900448 17.9684665 36.94971245 41.27544087 41.16796875 69.91015625 C41.45744591 73.58458825 41.53069356 77.24538677 41.56958008 80.93017578 C41.58754135 81.97071106 41.60550262 83.01124634 41.62400818 84.08331299 C41.67821928 87.48649564 41.71653428 90.88952142 41.75 94.29296875 C41.7618955 95.46316433 41.77379101 96.63335991 41.78604698 97.83901596 C41.8450837 104.02203426 41.88900774 110.20498095 41.9230957 116.38818359 C41.95434136 121.49060825 42.01720376 126.59115838 42.10766602 131.69287109 C42.21722815 137.87849094 42.27268888 144.06238207 42.28949547 150.24892807 C42.30473929 152.59736642 42.33872263 154.94576347 42.3921299 157.29364395 C42.80703687 176.58434395 42.80703687 176.58434395 38.79937744 181.28056335 C36.01540913 183.59156756 33.3723685 185.25254459 30.16796875 186.91015625 C28.65159682 188.01077736 27.15012278 189.13274605 25.67578125 190.2890625 C24.21666076 191.35275738 22.75567555 192.41389838 21.29296875 193.47265625 C14.35481029 198.53834785 7.48792944 203.68647725 0.66796875 208.91015625 C-6.71823316 214.56396793 -14.16398173 220.12486246 -21.66796875 225.62109375 C-27.60874558 229.98292657 -33.47956385 234.43070173 -39.33203125 238.91015625 C-46.71844917 244.5636902 -54.16397591 250.12485819 -61.66796875 255.62109375 C-67.60874558 259.98292657 -73.47956385 264.43070173 -79.33203125 268.91015625 C-86.71844917 274.5636902 -94.16397591 280.12485819 -101.66796875 285.62109375 C-107.60874558 289.98292657 -113.47956385 294.43070173 -119.33203125 298.91015625 C-126.71844917 304.5636902 -134.16397591 310.12485819 -141.66796875 315.62109375 C-147.60875499 319.98293348 -153.4792414 324.43111191 -159.33203125 328.91015625 C-166.34074378 334.26742052 -173.37160562 339.59213301 -180.45703125 344.84765625 C-181.25689453 345.44513672 -182.05675781 346.04261719 -182.88085938 346.65820312 C-183.62013672 347.20412109 -184.35941406 347.75003906 -185.12109375 348.3125 C-185.76771973 348.79195068 -186.4143457 349.27140137 -187.08056641 349.76538086 C-188.83203125 350.91015625 -188.83203125 350.91015625 -191.83203125 351.91015625 C-192.24441099 313.54853005 -192.5613946 275.18723881 -192.75120718 236.82384297 C-192.77371876 232.29043596 -192.79701667 227.75703331 -192.82080078 223.22363281 C-192.82552237 222.32114888 -192.83024396 221.41866495 -192.83510862 220.48883303 C-192.9133443 205.89296067 -193.05521371 191.29836989 -193.22078158 176.70325677 C-193.38936282 161.71704474 -193.48914128 146.73150185 -193.52562416 131.74438059 C-193.55027349 122.50236375 -193.62798171 113.26396918 -193.77452765 104.0230682 C-193.86999513 97.67822342 -193.89836564 91.33523892 -193.87505604 84.98972879 C-193.86356838 81.33193375 -193.88060459 77.68044269 -193.9777298 74.02378273 C-194.51588432 52.73168305 -194.51588432 52.73168305 -190.0507884 46.37385225 C-185.8688309 42.06400922 -181.15613131 38.92901211 -175.90552592 36.06201386 C-173.30202913 34.61573207 -170.99161578 32.88523195 -168.65625 31.04296875 C-167.2789644 30.03813945 -165.90009982 29.03547019 -164.51953125 28.03515625 C-158.56870165 23.69100698 -152.67739603 19.28077767 -146.8359375 14.79052734 C-102.54738659 -19.23741408 -49.59771923 -36.59969626 0 0 Z " fill="#FABB04" transform="translate(982.83203125,20.08984375)"/>
<path d="M0 0 C6.36462661 4.71173547 12.64618583 9.53532967 18.92578125 14.359375 C23.85770706 18.13973237 28.84433818 21.83875026 33.859375 25.5078125 C43.43069414 32.51723495 52.86292938 39.70460781 62.27905273 46.9206543 C64.31287515 48.52930919 64.31287515 48.52930919 66.45863318 49.78818446 C68.359375 51.5078125 68.359375 51.5078125 68.85616899 53.82325286 C68.8546501 54.74255578 68.85313122 55.6618587 68.85156631 56.60901928 C68.85953051 57.67046128 68.8674947 58.73190329 68.87570024 59.8255102 C68.85822319 61.58083842 68.85822319 61.58083842 68.84039307 63.37162781 C68.84381077 64.61150745 68.84722847 65.85138709 68.85074973 67.12883884 C68.85621175 70.57707466 68.84366492 74.02440827 68.82363749 77.47253525 C68.80640007 81.18826375 68.81220654 84.90396324 68.81524658 88.61972046 C68.81734631 95.05967025 68.80477222 101.49945821 68.78229523 107.93936729 C68.74981829 117.25042284 68.73937264 126.56139995 68.73434326 135.872506 C68.72558383 150.97828081 68.69895071 166.08396933 68.66113281 181.18969727 C68.62442947 195.86547412 68.59610951 210.54122755 68.57910156 225.21704102 C68.57805067 226.12131251 68.57699977 227.02558399 68.57591704 227.95725765 C68.57069697 232.49361919 68.56564212 237.0299809 68.56066942 241.56634271 C68.51918722 279.21356024 68.44872119 316.86067966 68.359375 354.5078125 C65.54889568 353.13295843 63.06880253 351.67420999 60.55078125 349.8125 C59.81472656 349.26980469 59.07867187 348.72710937 58.3203125 348.16796875 C57.52882812 347.57886719 56.73734375 346.98976563 55.921875 346.3828125 C55.08785156 345.76535156 54.25382813 345.14789063 53.39453125 344.51171875 C46.28056254 339.22917353 39.23595362 333.85723081 32.19946289 328.47216797 C26.46332925 324.08916001 20.68322544 319.77344209 14.859375 315.5078125 C7.23197483 309.9211883 -0.29707065 304.21504912 -7.8046875 298.46875 C-13.53965227 294.08716924 -19.31822063 289.77238292 -25.140625 285.5078125 C-32.76802517 279.9211883 -40.29707065 274.21504912 -47.8046875 268.46875 C-53.53965227 264.08716924 -59.31822063 259.77238292 -65.140625 255.5078125 C-72.76802517 249.9211883 -80.29707065 244.21504912 -87.8046875 238.46875 C-93.53965227 234.08716924 -99.31822063 229.77238292 -105.140625 225.5078125 C-112.75997718 219.92708297 -120.28207221 214.2282247 -127.78051758 208.48632812 C-134.48325016 203.36360093 -141.25056587 198.33549896 -148.07421875 193.375 C-149.48406118 192.34551075 -150.87856067 191.2945465 -152.25379944 190.2192688 C-154.58624272 188.44173448 -154.58624272 188.44173448 -157.21800232 187.27316284 C-160.61980866 185.35104437 -162.41341842 183.75336556 -164.640625 180.5078125 C-166.59888701 172.84972262 -165.89833309 164.56672006 -165.7578125 156.734375 C-165.74930019 154.36755416 -165.74465379 152.00071656 -165.74368286 149.63388062 C-165.73136055 144.67197944 -165.6860416 139.71188695 -165.61474609 134.75048828 C-165.52469549 128.43864888 -165.49471863 122.12845681 -165.48727226 115.81603432 C-165.47833968 110.92377933 -165.44759373 106.03185929 -165.4095192 101.13975143 C-165.39193834 98.81572562 -165.37839118 96.49166522 -165.36919785 94.16759109 C-165.19399458 63.00437575 -157.66395427 35.34037648 -135.08984375 12.93310547 C-134.61160156 12.46275879 -134.13335937 11.99241211 -133.640625 11.5078125 C-132.8053125 10.67378906 -131.97 9.83976562 -131.109375 8.98046875 C-117.1110161 -4.31342728 -99.27858533 -12.31548796 -80.640625 -16.4921875 C-79.89087402 -16.6672583 -79.14112305 -16.8423291 -78.36865234 -17.02270508 C-51.25480191 -21.68888857 -22.47387855 -15.83104704 0 0 Z " fill="#C4221F" transform="translate(164.640625,17.4921875)"/>
</svg>
