<svg width="63" height="66" viewBox="0 0 63 66" fill="none" xmlns="http://www.w3.org/2000/svg">
<g clip-path="url(#clip0_2013_5671)">
<path d="M49.7899 40.8846C48.5002 39.4777 46.9445 38.7255 45.2957 38.7255C43.6602 38.7255 42.0912 39.4638 40.7483 40.8707L36.5465 45.2586C36.2008 45.0636 35.8551 44.8825 35.5227 44.7014C35.044 44.4506 34.5919 44.2138 34.2063 43.9631C30.2706 41.3443 26.6938 37.9315 23.2633 33.5158C21.6012 31.3149 20.4843 29.4622 19.6732 27.5817C20.7635 26.537 21.774 25.4505 22.758 24.4057C23.1303 24.0157 23.5026 23.6117 23.8749 23.2217C26.6672 20.2965 26.6672 16.5076 23.8749 13.5823L20.2449 9.7795C19.8327 9.34768 19.4072 8.90193 19.0084 8.45617C18.2106 7.59253 17.3729 6.70102 16.5086 5.86524C15.2188 4.52798 13.6764 3.81757 12.0542 3.81757C10.4321 3.81757 8.86306 4.52798 7.5334 5.86524C7.5201 5.87917 7.5201 5.87917 7.50681 5.8931L2.98597 10.671C1.28401 12.454 0.313357 14.6271 0.100612 17.1483C-0.218506 21.2158 0.925 25.0047 1.80257 27.4842C3.95662 33.5715 7.17439 39.2131 11.9745 45.2586C17.7984 52.5438 24.8057 58.2968 32.8102 62.3504C35.8684 63.8687 39.9505 65.6657 44.5112 65.9721C44.7904 65.986 45.0829 66 45.3489 66C48.4204 66 50.9999 64.8438 53.021 62.5454C53.0343 62.5175 53.0609 62.5036 53.0742 62.4757C53.7656 61.5982 54.5634 60.8042 55.4011 59.9545C55.9729 59.3833 56.5579 58.7844 57.1297 58.1575C58.446 56.7228 59.1374 55.0512 59.1374 53.3378C59.1374 51.6105 58.4327 49.9529 57.0898 48.5599L49.7899 40.8846ZM54.5501 55.5527C54.5368 55.5527 54.5368 55.5666 54.5501 55.5527C54.0316 56.1377 53.4997 56.667 52.9279 57.2521C52.0637 58.1157 51.1861 59.0212 50.3617 60.038C49.0187 61.5425 47.4364 62.2529 45.3622 62.2529C45.1627 62.2529 44.95 62.2529 44.7505 62.2389C40.8014 61.9743 37.1316 60.3584 34.3792 58.9794C26.8533 55.1626 20.2449 49.744 14.7534 42.8766C10.2193 37.1515 7.18769 31.8582 5.17991 26.1748C3.94332 22.7063 3.49124 20.0039 3.69069 17.4548C3.82365 15.825 4.422 14.4738 5.52562 13.3177L10.0598 8.56761C10.7113 7.92684 11.4027 7.5786 12.0808 7.5786C12.9185 7.5786 13.5966 8.10793 14.0221 8.55368C14.0354 8.56761 14.0487 8.58154 14.062 8.59547C14.8731 9.38947 15.6443 10.2113 16.4554 11.0889C16.8676 11.5346 17.2931 11.9804 17.7186 12.4401L21.3485 16.2429C22.758 17.7195 22.758 19.0846 21.3485 20.5611C20.9629 20.9651 20.5906 21.3691 20.205 21.7591C19.0881 22.957 18.0244 24.0714 16.8676 25.1579C16.841 25.1858 16.8144 25.1997 16.8011 25.2276C15.6576 26.4256 15.8704 27.5957 16.1097 28.3896C16.123 28.4314 16.1363 28.4732 16.1496 28.515C17.0936 30.9109 18.4233 33.1676 20.4444 35.856L20.4577 35.8699C24.1275 40.606 27.9968 44.2974 32.265 47.1252C32.8102 47.4873 33.3687 47.7799 33.9005 48.0585C34.3792 48.3092 34.8313 48.546 35.2169 48.7967C35.2701 48.8246 35.3233 48.8664 35.3764 48.8942C35.8285 49.1311 36.254 49.2425 36.6928 49.2425C37.7964 49.2425 38.4878 48.5181 38.7139 48.2813L43.2613 43.5174C43.7134 43.0437 44.4314 42.4726 45.2691 42.4726C46.0935 42.4726 46.7716 43.0159 47.1838 43.4895C47.1971 43.5034 47.1971 43.5034 47.2104 43.5174L54.5368 51.1926C55.9064 52.6135 55.9064 54.0761 54.5501 55.5527Z" fill="white"/>
<path d="M54.5501 55.5527C54.5368 55.5527 54.5368 55.5666 54.5501 55.5527ZM54.5501 55.5527C54.0315 56.1377 53.4997 56.667 52.9279 57.2521C52.0637 58.1157 51.1861 59.0212 50.3617 60.038C49.0187 61.5425 47.4364 62.2529 45.3622 62.2529C45.1627 62.2529 44.95 62.2529 44.7505 62.2389C40.8014 61.9743 37.1316 60.3584 34.3792 58.9794C26.8533 55.1626 20.2449 49.744 14.7534 42.8766C10.2193 37.1515 7.18769 31.8582 5.17991 26.1748C3.94332 22.7063 3.49124 20.0039 3.69069 17.4548C3.82365 15.825 4.422 14.4738 5.52562 13.3177L10.0598 8.56761C10.7113 7.92684 11.4027 7.5786 12.0808 7.5786C12.9185 7.5786 13.5966 8.10793 14.0221 8.55368C14.0354 8.56761 14.0487 8.58154 14.062 8.59547C14.8731 9.38947 15.6443 10.2113 16.4554 11.0889C16.8676 11.5346 17.2931 11.9804 17.7186 12.4401L21.3485 16.2429C22.758 17.7195 22.758 19.0846 21.3485 20.5611C20.9629 20.9651 20.5906 21.3691 20.205 21.7591C19.0881 22.957 18.0244 24.0714 16.8676 25.1579C16.841 25.1858 16.8144 25.1997 16.8011 25.2276C15.6576 26.4256 15.8704 27.5957 16.1097 28.3896C16.123 28.4314 16.1363 28.4732 16.1496 28.515C17.0936 30.9109 18.4233 33.1676 20.4444 35.856L20.4577 35.8699C24.1275 40.606 27.9968 44.2974 32.265 47.1252C32.8102 47.4873 33.3687 47.7799 33.9005 48.0585C34.3792 48.3092 34.8313 48.546 35.2169 48.7967C35.2701 48.8246 35.3233 48.8664 35.3764 48.8942C35.8285 49.131 36.254 49.2425 36.6928 49.2425C37.7964 49.2425 38.4878 48.5181 38.7139 48.2813L43.2613 43.5174C43.7134 43.0437 44.4314 42.4726 45.2691 42.4726C46.0935 42.4726 46.7716 43.0159 47.1838 43.4895C47.1971 43.5034 47.1971 43.5034 47.2104 43.5174L54.5368 51.1927C55.9064 52.6135 55.9064 54.0761 54.5501 55.5527ZM49.7899 40.8846C48.5002 39.4777 46.9445 38.7255 45.2957 38.7255C43.6602 38.7255 42.0912 39.4638 40.7483 40.8707L36.5465 45.2586C36.2008 45.0636 35.8551 44.8825 35.5227 44.7014C35.044 44.4507 34.5919 44.2138 34.2063 43.9631C30.2706 41.3443 26.6938 37.9315 23.2633 33.5158C21.6012 31.3149 20.4843 29.4622 19.6732 27.5817C20.7635 26.537 21.774 25.4505 22.758 24.4057C23.1303 24.0157 23.5026 23.6117 23.8749 23.2217C26.6672 20.2965 26.6672 16.5076 23.8749 13.5823L20.2449 9.7795C19.8327 9.34768 19.4072 8.90193 19.0084 8.45617C18.2106 7.59253 17.3729 6.70102 16.5086 5.86524C15.2188 4.52798 13.6764 3.81757 12.0542 3.81757C10.4321 3.81757 8.86306 4.52798 7.5334 5.86524C7.5201 5.87917 7.5201 5.87917 7.50681 5.8931L2.98597 10.671C1.28401 12.454 0.313357 14.6271 0.100612 17.1483C-0.218506 21.2158 0.925 25.0047 1.80257 27.4842C3.95662 33.5715 7.17439 39.2131 11.9745 45.2586C17.7984 52.5438 24.8057 58.2968 32.8102 62.3504C35.8684 63.8687 39.9505 65.6657 44.5112 65.9721C44.7904 65.986 45.0829 66 45.3489 66C48.4204 66 50.9999 64.8438 53.021 62.5454C53.0343 62.5175 53.0609 62.5036 53.0742 62.4758C53.7656 61.5982 54.5634 60.8042 55.4011 59.9545C55.9728 59.3833 56.5579 58.7844 57.1297 58.1575C58.446 56.7228 59.1374 55.0512 59.1374 53.3378C59.1374 51.6105 58.4327 49.9529 57.0898 48.5599L49.7899 40.8846Z" stroke="white" stroke-width="0.422114"/>
<path d="M34.0469 15.6997C37.5306 16.3126 40.6952 18.0399 43.2215 20.6865C45.7479 23.3332 47.3833 26.6484 47.9817 30.298C48.128 31.2174 48.8859 31.8582 49.7501 31.8582C49.8565 31.8582 49.9496 31.8442 50.056 31.8303C51.0399 31.6632 51.6914 30.6881 51.5319 29.6573C50.8139 25.2415 48.8194 21.2158 45.7745 18.0259C42.7296 14.836 38.8868 12.7466 34.6718 11.9944C33.6879 11.8272 32.7704 12.5098 32.5976 13.5266C32.4247 14.5435 33.0629 15.5325 34.0469 15.6997Z" fill="white" stroke="white" stroke-width="0.422114"/>
<path d="M62.9269 29.114C61.7435 21.8427 58.4725 15.226 53.4464 9.96058C48.4203 4.69514 42.1044 1.26842 35.1636 0.0286695C34.193 -0.152417 33.2755 0.54407 33.1026 1.56094C32.9431 2.59174 33.5946 3.5529 34.5786 3.73398C40.7748 4.83443 46.4258 7.91291 50.9201 12.6072C55.4143 17.3155 58.3395 23.2356 59.39 29.7269C59.5362 30.6463 60.2941 31.287 61.1584 31.287C61.2648 31.287 61.3579 31.2731 61.4642 31.2592C62.4349 31.1059 63.0997 30.1309 62.9269 29.114Z" fill="white" stroke="white" stroke-width="0.422114"/>
</g>
<defs>
<clipPath id="clip0_2013_5671">
<rect width="63" height="66" fill="white"/>
</clipPath>
</defs>
</svg>
