<svg width="39" height="35" viewBox="0 0 79 75" fill="none" xmlns="http://www.w3.org/2000/svg">
<g clip-path="url(#clip0_2013_5866)">
<path d="M39.5 75C61.3151 75 79 58.2105 79 37.5C79 16.7895 61.3151 0 39.5 0C17.6849 0 0 16.7895 0 37.5C0 58.2105 17.6849 75 39.5 75Z" fill="#2CA01C"/>
<path d="M10.9723 37.5C10.9723 41.3678 12.5907 45.0771 15.4715 47.812C18.3523 50.5469 22.2594 52.0834 26.3335 52.0834H28.5276V46.6664H26.3335C25.059 46.6761 23.7951 46.4461 22.6147 45.9898C21.4343 45.5335 20.3607 44.8598 19.4559 44.0076C18.5511 43.1554 17.8329 42.1416 17.3428 41.0247C16.8527 39.9077 16.6004 38.7097 16.6004 37.4997C16.6004 36.2897 16.8527 35.0917 17.3428 33.9747C17.8329 32.8578 18.5511 31.844 19.4559 30.9918C20.3607 30.1396 21.4343 29.466 22.6147 29.0096C23.7951 28.5533 25.059 28.3233 26.3335 28.333H31.5999V56.6666C31.6004 58.103 32.2017 59.4805 33.2715 60.4963C34.3413 61.512 35.7922 62.083 37.3052 62.0836V22.9166H26.3335C24.3162 22.9165 22.3186 23.2937 20.4548 24.0265C18.591 24.7594 16.8976 25.8336 15.4711 27.1878C14.0446 28.542 12.913 30.1497 12.141 31.919C11.369 33.6884 10.9723 35.5848 10.9723 37.5ZM52.6664 22.9166H50.4723V28.3336H52.6664C55.2082 28.3609 57.6362 29.3386 59.4235 31.0547C61.2107 32.7708 62.2131 35.0867 62.2131 37.5C62.2131 39.9133 61.2107 42.2292 59.4235 43.9453C57.6362 45.6614 55.2082 46.6391 52.6664 46.6664H47.3999V18.334C47.4 17.6226 47.2525 16.9183 46.9658 16.261C46.6791 15.6038 46.2589 15.0066 45.7291 14.5036C45.1993 14.0006 44.5704 13.6016 43.8781 13.3293C43.1859 13.0571 42.4439 12.917 41.6947 12.917V52.084H52.6664C56.7404 52.084 60.6476 50.5475 63.5284 47.8126C66.4092 45.0777 68.0276 41.3683 68.0276 37.5006C68.0276 33.6328 66.4092 29.9235 63.5284 27.1886C60.6476 24.4536 56.7404 22.9166 52.6664 22.9166Z" fill="white"/>
</g>
<defs>
<clipPath id="clip0_2013_5866">
<rect width="79" height="75" fill="white"/>
</clipPath>
</defs>
</svg>
